<?xml version="1.0" encoding="utf-8"?>
<!-- Generator: Adobe Illustrator 22.0.1, SVG Export Plug-In . SVG Version: 6.00 Build 0)  -->
<svg version="1.1" xmlns="http://www.w3.org/2000/svg" xmlns:xlink="http://www.w3.org/1999/xlink" x="0px" y="0px"
	 viewBox="0 0 524 284" style="enable-background:new 0 0 524 284;" xml:space="preserve">
<style type="text/css">
	.st0{fill:#808080;}
	.st1{fill:#E5E5E5;}
	.st2{fill:url(#SVGID_1_);}
	.st3{fill:url(#SVGID_2_);}
	.st4{opacity:7.000000e-02;}
	.st5{fill:#FFFFFF;}
	.st6{filter:url(#Adobe_OpacityMaskFilter);}
	.st7{filter:url(#Adobe_OpacityMaskFilter_1_);}
	.st8{mask:url(#SVGID_3_);fill:url(#SVGID_4_);}
	.st9{fill:url(#SVGID_5_);}
	.st10{fill:url(#SVGID_6_);}
	.st11{fill:url(#SVGID_7_);}
	.st12{opacity:0.5;fill:#FFFFFF;}
	.st13{opacity:0.2;}
	.st14{fill:url(#path4462_1_);}
	.st15{fill:url(#path4464_1_);}
	.st16{fill:url(#path4486_1_);}
</style>
<g id="Layer_2">
	<image style="overflow:visible;" width="502" height="10" xlink:href="11AB41E2.png"  transform="matrix(1 0 0 1 12 276)">
	</image>
	
		<image style="overflow:visible;opacity:0.3;" width="514" height="11" xlink:href="11AB41E6.png"  transform="matrix(1 0 0 1 6 270)">
	</image>
</g>
<g id="Layer_1">
	<path class="st0" d="M74,260V21.1C74,13.9,79.9,8,87.1,8h351.8c7.2,0,13.1,5.9,13.1,13.1V260H74z"/>
	<path class="st1" d="M75,259V21.1C75,14.4,80.4,9,87.1,9h351.8c6.7,0,12.1,5.4,12.1,12.1V259H75z"/>
	<linearGradient id="SVGID_1_" gradientUnits="userSpaceOnUse" x1="109.1259" y1="291.1259" x2="416.8741" y2="-16.6224">
		<stop  offset="0" style="stop-color:#000000"/>
		<stop  offset="1" style="stop-color:#333333"/>
	</linearGradient>
	<path class="st2" d="M450,258V21.1c0-6.1-5-11.1-11.1-11.1H87.1C81,10,76,15,76,21.1V258H450z"/>
	<g>
		<linearGradient id="SVGID_2_" gradientUnits="userSpaceOnUse" x1="263" y1="242" x2="263" y2="26">
			<stop  offset="0" style="stop-color:#1A1A1A"/>
			<stop  offset="1" style="stop-color:#4D4D4D"/>
		</linearGradient>
		<rect x="93" y="26" class="st3" width="340" height="216"/>
	</g>
	<g class="st4">
		<path class="st5" d="M432,27v214H94V27H432L432,27z M433,26H93v216h340V26L433,26z"/>
	</g>
	<defs>
		<filter id="Adobe_OpacityMaskFilter" filterUnits="userSpaceOnUse" x="76" y="10" width="279.7" height="248">
			<feColorMatrix  type="matrix" values="1 0 0 0 0  0 1 0 0 0  0 0 1 0 0  0 0 0 1 0"/>
		</filter>
	</defs>
	<mask maskUnits="userSpaceOnUse" x="76" y="10" width="279.7" height="248" id="SVGID_3_">
		<g class="st6">
			<defs>
				<filter id="Adobe_OpacityMaskFilter_1_" filterUnits="userSpaceOnUse" x="76" y="10" width="279.7" height="248">
					<feFlood  style="flood-color:white;flood-opacity:1" result="back"/>
					<feBlend  in="SourceGraphic" in2="back" mode="normal"/>
				</filter>
			</defs>
			<mask maskUnits="userSpaceOnUse" x="76" y="10" width="279.7" height="248" id="SVGID_3_">
				<g class="st7">
				</g>
			</mask>
			<linearGradient id="SVGID_4_" gradientUnits="userSpaceOnUse" x1="215.8486" y1="258" x2="215.8486" y2="10">
				<stop  offset="0" style="stop-color:#000000"/>
				<stop  offset="1" style="stop-color:#808080"/>
			</linearGradient>
			<path class="st8" d="M355.7,10H87.1C81,10,76,15,76,21.1V258h213.8L355.7,10z"/>
		</g>
	</mask>
	<linearGradient id="SVGID_5_" gradientUnits="userSpaceOnUse" x1="215.8486" y1="258" x2="215.8486" y2="10">
		<stop  offset="0" style="stop-color:#000000"/>
		<stop  offset="1" style="stop-color:#000000"/>
	</linearGradient>
	<path class="st9" d="M355.7,10H87.1C81,10,76,15,76,21.1V258h213.8L355.7,10z"/>
	<image style="overflow:visible;" width="502" height="10" xlink:href="11AB41E1.png"  transform="matrix(1 0 0 1 12 266)">
	</image>
	<linearGradient id="SVGID_6_" gradientUnits="userSpaceOnUse" x1="12" y1="261" x2="514" y2="261">
		<stop  offset="0" style="stop-color:#6E6E6E"/>
		<stop  offset="2.000000e-02" style="stop-color:#FFFFFF"/>
		<stop  offset="0.1" style="stop-color:#AAAAAA"/>
		<stop  offset="0.5" style="stop-color:#F6F6F6"/>
		<stop  offset="0.9" style="stop-color:#AAAAAA"/>
		<stop  offset="0.98" style="stop-color:#FFFFFF"/>
		<stop  offset="1" style="stop-color:#6E6E6E"/>
	</linearGradient>
	<rect x="12" y="256" class="st10" width="502" height="10"/>
	<g>
		<linearGradient id="SVGID_7_" gradientUnits="userSpaceOnUse" x1="263" y1="264" x2="263" y2="256">
			<stop  offset="0" style="stop-color:#2B2B2B"/>
			<stop  offset="0.6818" style="stop-color:#FFFFFF"/>
			<stop  offset="1" style="stop-color:#B0B0B0"/>
		</linearGradient>
		<path class="st11" d="M299,264h-72c-1.7,0-3-1.3-3-3v-5h78v5C302,262.7,300.7,264,299,264z"/>
		<path class="st12" d="M302,261c0,1.7-1.3,3-3,3h-72c-1.7,0-3-1.3-3-3v-5h-1v5c0,2.2,1.8,4,4,4h72c2.2,0,4-1.8,4-4v-5h-1V261z"/>
		<path class="st13" d="M301,256v1v1v3c0,1.1-0.9,2-2,2h-72c-1.1,0-2-0.9-2-2v-3v-1v-1h-1v5c0,1.7,1.3,3,3,3h72c1.7,0,3-1.3,3-3v-5
			H301z"/>
	</g>
	<g>
		
			<radialGradient id="path4462_1_" cx="111.7055" cy="632.9843" r="3.9027" gradientTransform="matrix(0 -0.7941 -0.7692 0 749.8915 106.6281)" gradientUnits="userSpaceOnUse">
			<stop  offset="0" style="stop-color:#5D5D5D"/>
			<stop  offset="1" style="stop-color:#070707"/>
		</radialGradient>
		<path id="path4462" class="st14" d="M266,18c0,1.7-1.3,3-3,3c-1.7,0-3-1.3-3-3c0-1.7,1.3-3,3-3C264.7,15,266,16.3,266,18z"/>
		
			<linearGradient id="path4464_1_" gradientUnits="userSpaceOnUse" x1="202.4805" y1="222.1295" x2="202.4805" y2="215.7174" gradientTransform="matrix(1 0 0 -1 60.52 236.9805)">
			<stop  offset="0" style="stop-color:#1C1C1C"/>
			<stop  offset="1" style="stop-color:#3D3D3D"/>
		</linearGradient>
		<path id="path4464" class="st15" d="M263,15c-1.7,0-3,1.3-3,3c0,1.7,1.3,3,3,3c1.7,0,3-1.3,3-3C266,16.3,264.7,15,263,15z
			 M263,15.6c1.3,0,2.4,1.1,2.4,2.4c0,1.3-1.1,2.4-2.4,2.4s-2.4-1.1-2.4-2.4C260.6,16.7,261.7,15.6,263,15.6z"/>
		
			<radialGradient id="path4486_1_" cx="-684.1597" cy="1233.223" r="3.9014" gradientTransform="matrix(0 -0.1868 -0.209 0 520.3196 -110.4123)" gradientUnits="userSpaceOnUse">
			<stop  offset="0" style="stop-color:#959595"/>
			<stop  offset="1" style="stop-color:#070707"/>
		</radialGradient>
		<path id="path4486" class="st16" d="M264.2,18c0,0.7-0.5,1.2-1.2,1.2c-0.7,0-1.2-0.5-1.2-1.2s0.5-1.2,1.2-1.2
			C263.7,16.8,264.2,17.3,264.2,18z"/>
	</g>
</g>
</svg>
