<?xml version="1.0" encoding="utf-8"?>
<!-- Generator: Adobe Illustrator 22.0.1, SVG Export Plug-In . SVG Version: 6.00 Build 0)  -->
<svg version="1.1" id="Laag_1" xmlns="http://www.w3.org/2000/svg" xmlns:xlink="http://www.w3.org/1999/xlink" x="0px" y="0px"
	 viewBox="0 0 1920 1080" style="enable-background:new 0 0 1920 1080;" xml:space="preserve">
<style type="text/css">
	.st0{fill:none;}
	.st1{fill:#E6E6E6;}
	.st2{fill:#FEA431;}
	.st3{fill:#F2F2F2;}
	.st4{fill:#FFFFFF;}
</style>
<image style="overflow:visible;opacity:0.75;" width="1063" height="1082" xlink:href="EABCC192.jpg"  transform="matrix(0.9982 0 0 0.9982 858.9639 0)">
</image>
<polygon class="st0" points="1071.9,1014.8 1920,971.8 1920,173.1 1138.2,106.1 "/>
<polygon class="st1" points="960,0 882.8,1080 983.5,1080 1060.6,0 "/>
<polygon class="st2" points="867.5,0 766.9,0 114,0 13.4,0 1,0 1,127.9 1,1080 882.8,1080 960,0 "/>
<g>
	<g>
		<path class="st3" d="M174.9,246L161,220.7h10.3l5.8,11.6c1.2,2.4,2.4,4.8,3.9,8h0.3c1.3-3.2,2.4-5.6,3.5-8l5.5-11.6h9.9
			l-13.9,25.8l14.8,26.5h-10.3l-6.4-12.4c-1.3-2.7-2.7-5.3-4.2-8.5H180c-1.4,3.2-2.6,5.9-3.9,8.5l-6.2,12.4h-9.9L174.9,246z"/>
		<path class="st3" d="M206,262.4c0-8.4,7-12.8,23.1-14.5c-0.1-4.2-1.8-7.7-7.1-7.7c-3.9,0-7.6,1.8-11,3.9l-3.4-6.1
			c4.3-2.7,9.9-5.2,16.1-5.2c9.8,0,14.7,6,14.7,17V273h-7.6l-0.7-4.4h-0.3c-3.5,3-7.6,5.3-12.2,5.3C210.7,274,206,269.3,206,262.4z
			 M229.1,262.5v-8.8c-10.7,1.3-14.2,4.1-14.2,8.1c0,3.5,2.4,5,5.7,5C223.8,266.7,226.2,265.2,229.1,262.5z"/>
		<path class="st3" d="M246.9,288.3l1.7-7.1c0.8,0.2,1.9,0.5,2.8,0.5c4.1,0,6.5-2.8,7.8-6.8l0.7-2.5l-15.5-38.8h9.3l6.8,19.3
			c1.2,3.5,2.3,7.4,3.5,11.1h0.3c1-3.6,2-7.5,3-11.1l5.9-19.3h8.9L268,274.8c-3.3,8.8-7.4,14.3-16,14.3
			C249.8,289.1,248.3,288.8,246.9,288.3z"/>
		<path class="st3" d="M286.6,253.4c0-12.8,8-20.6,16.6-20.6c4.4,0,7.3,1.7,10.3,4.3l-0.4-6.3v-14.2h9.2V273h-7.6l-0.7-4.3h-0.3
			c-2.9,2.9-6.9,5.2-11.2,5.2C292.9,274,286.6,266.3,286.6,253.4z M313.2,261.9v-18.3c-2.7-2.4-5.3-3.3-8-3.3c-5,0-9.1,4.7-9.1,12.9
			c0,8.5,3.3,13.1,8.9,13.1C308,266.3,310.6,265,313.2,261.9z"/>
		<path class="st3" d="M331.5,253.4c0-12.8,8.9-20.6,18.1-20.6c10.6,0,16.2,7.7,16.2,18.7c0,1.8-0.2,3.5-0.4,4.5h-24.9
			c0.8,7,5.2,10.9,11.6,10.9c3.4,0,6.2-1.1,9.1-2.8l3.1,5.7c-3.7,2.5-8.5,4.3-13.5,4.3C340,274,331.5,266.3,331.5,253.4z
			 M357.9,249.6c0-6-2.7-9.7-8.1-9.7c-4.6,0-8.6,3.4-9.4,9.7H357.9z"/>
		<path class="st3" d="M374.6,233.7h7.6l0.7,5.3h0.3c3.5-3.4,7.5-6.3,12.9-6.3c8.4,0,12.1,5.7,12.1,15.6V273h-9.2v-23.5
			c0-6.5-1.9-8.9-6.1-8.9c-3.5,0-5.7,1.7-9,4.9V273h-9.2V233.7z"/>
		<path class="st3" d="M436.2,220.7h16.7c10.8,0,18.7,3.3,18.7,12.9c0,4.9-2.7,9.7-7.3,11.3v0.3c5.8,1.3,10,5.3,10,12.4
			c0,10.5-8.6,15.4-20.1,15.4h-18.1V220.7z M452.1,242.3c7.3,0,10.4-2.8,10.4-7.4c0-5.1-3.4-7-10.2-7h-6.8v14.4H452.1z M453.3,265.8
			c7.7,0,12-2.8,12-8.6c0-5.5-4.2-7.9-12-7.9h-7.8v16.5H453.3z"/>
		<path class="st3" d="M482.7,258.3v-24.6h9.2v23.5c0,6.5,1.9,8.9,6.1,8.9c3.5,0,5.7-1.6,8.7-5.4v-26.9h9.2V273h-7.6l-0.7-5.8h-0.3
			c-3.5,4.1-7.3,6.8-12.6,6.8C486.4,274,482.7,268.3,482.7,258.3z"/>
		<path class="st3" d="M526.6,221.6c0-3.1,2.4-5.2,5.7-5.2s5.7,2.1,5.7,5.2c0,3-2.4,5.2-5.7,5.2S526.6,224.6,526.6,221.6z
			 M527.7,233.7h9.2V273h-9.2V233.7z"/>
		<path class="st3" d="M548.6,262.9v-46.4h9.2v46.9c0,2.3,1,3.1,2,3.1c0.4,0,0.7,0,1.4-0.2l1.2,6.9c-1.1,0.4-2.7,0.8-4.9,0.8
			C551,274,548.6,269.7,548.6,262.9z"/>
		<path class="st3" d="M567.9,253.4c0-12.8,8-20.6,16.6-20.6c4.4,0,7.3,1.7,10.3,4.3l-0.4-6.3v-14.2h9.2V273h-7.6l-0.7-4.3h-0.3
			c-2.9,2.9-6.9,5.2-11.2,5.2C574.2,274,567.9,266.3,567.9,253.4z M594.5,261.9v-18.3c-2.7-2.4-5.3-3.3-8-3.3c-5,0-9.1,4.7-9.1,12.9
			c0,8.5,3.3,13.1,8.9,13.1C589.3,266.3,591.9,265,594.5,261.9z"/>
		<path class="st3" d="M616.8,259.8V241h-5.6v-6.9l6.1-0.4l1.1-10.7h7.6v10.7h10v7.3h-10v18.7c0,4.6,1.8,6.9,5.6,6.9
			c1.3,0,2.9-0.4,4.1-0.9l1.6,6.8c-2.1,0.7-4.9,1.4-8,1.4C620.1,274,616.8,268.2,616.8,259.8z"/>
		<path class="st3" d="M641.6,253.4c0-12.8,8.9-20.6,18.1-20.6c10.6,0,16.2,7.7,16.2,18.7c0,1.8-0.2,3.5-0.4,4.5h-24.9
			c0.8,7,5.2,10.9,11.6,10.9c3.4,0,6.2-1.1,9.1-2.8l3.1,5.7c-3.7,2.5-8.5,4.3-13.5,4.3C650.2,274,641.6,266.3,641.6,253.4z
			 M668,249.6c0-6-2.7-9.7-8.1-9.7c-4.6,0-8.6,3.4-9.4,9.7H668z"/>
		<path class="st3" d="M682.7,262.4c0-8.4,7-12.8,23.1-14.5c-0.1-4.2-1.8-7.7-7.1-7.7c-3.9,0-7.6,1.8-11,3.9l-3.4-6.1
			c4.3-2.7,9.9-5.2,16.1-5.2c9.8,0,14.7,6,14.7,17V273h-7.6l-0.7-4.4h-0.3c-3.5,3-7.6,5.3-12.2,5.3
			C687.4,274,682.7,269.3,682.7,262.4z M705.8,262.5v-8.8c-10.7,1.3-14.2,4.1-14.2,8.1c0,3.5,2.4,5,5.7,5
			C700.4,266.7,702.9,265.2,705.8,262.5z"/>
		<path class="st3" d="M726.1,233.7h7.6l0.7,5.4h0.3c3.3-3.5,7.1-6.3,12.1-6.3c5.8,0,9,2.6,10.8,7c3.8-4,7.6-7,12.6-7
			c8.3,0,12.1,5.7,12.1,15.6V273H773v-23.5c0-6.5-1.9-8.9-6-8.9c-2.5,0-5.2,1.6-8.2,4.9V273h-9.2v-23.5c0-6.5-1.9-8.9-6-8.9
			c-2.4,0-5.2,1.6-8.2,4.9V273h-9.2V233.7z"/>
	</g>
</g>
<g>
	<g>
		<path class="st3" d="M160,408.9h1.7l2.9,13.6c0.5,2.5,1.1,5,1.6,7.5h0.1c0.5-2.5,1.2-5,1.8-7.5l3.6-13.6h1.6l3.6,13.6
			c0.6,2.5,1.2,5,1.8,7.5h0.1c0.5-2.5,1-5,1.5-7.5l2.9-13.6h1.6l-5.2,23.1H178l-4.2-15.8c-0.4-1.8-0.8-3.4-1.2-5.2h-0.1
			c-0.4,1.8-0.9,3.4-1.3,5.2L167,432h-1.8L160,408.9z"/>
		<path class="st3" d="M187.8,423.6c0-5.5,3.6-8.9,7.3-8.9c4,0,6.4,2.8,6.4,7.8c0,0.4,0,0.8-0.1,1.3h-12.1c0.1,4.2,2.5,7.3,6.3,7.3
			c1.8,0,3.3-0.6,4.5-1.5l0.6,1.2c-1.3,0.8-2.8,1.7-5.3,1.7C191.2,432.4,187.8,429.1,187.8,423.6z M200.1,422.5c0-4.3-1.9-6.4-5-6.4
			c-2.8,0-5.4,2.4-5.8,6.4H200.1z"/>
		<path class="st3" d="M211.9,427.8c0-3.7,3.4-5.5,10.8-6.3c0-2.6-0.7-5.3-4-5.3c-2.3,0-4.2,1.1-5.4,2l-0.7-1.1
			c1.2-0.8,3.5-2.2,6.3-2.2c4,0,5.3,2.9,5.3,6.5V432H223l-0.2-2.2h-0.1c-1.7,1.4-3.8,2.6-6,2.6C214.1,432.4,211.9,431,211.9,427.8z
			 M222.7,428.4v-5.7c-6.9,0.8-9.3,2.4-9.3,5.1c0,2.4,1.6,3.3,3.6,3.3C218.9,431.1,220.6,430.1,222.7,428.4z"/>
		<path class="st3" d="M230.3,415.2h1.3l0.2,3.1h0.1c1.1-2.1,2.8-3.6,4.8-3.6c0.6,0,1.1,0.1,1.7,0.4l-0.4,1.4
			c-0.6-0.2-0.9-0.3-1.5-0.3c-1.5,0-3.3,1.1-4.6,4.3V432h-1.5V415.2z"/>
		<path class="st3" d="M239.9,423.6c0-5.5,3.6-8.9,7.3-8.9c4,0,6.4,2.8,6.4,7.8c0,0.4,0,0.8-0.1,1.3h-12.1c0.1,4.2,2.5,7.3,6.3,7.3
			c1.8,0,3.3-0.6,4.5-1.5l0.6,1.2c-1.3,0.8-2.8,1.7-5.3,1.7C243.4,432.4,239.9,429.1,239.9,423.6z M252.3,422.5c0-4.3-1.9-6.4-5-6.4
			c-2.8,0-5.4,2.4-5.8,6.4H252.3z"/>
		<path class="st3" d="M268.2,423.2l-5.2-8h1.7l2.7,4.3c0.5,0.9,1.2,1.8,1.8,2.8h0.1c0.6-0.9,1.1-1.8,1.7-2.8l2.6-4.3h1.6l-5.2,8.2
			l5.7,8.7h-1.7l-3-4.6c-0.6-1-1.3-2.1-2-3.1H269c-0.7,1-1.3,2-1.9,3.1l-2.9,4.6h-1.6L268.2,423.2z"/>
		<path class="st3" d="M278.3,427.8c0-3.7,3.4-5.5,10.8-6.3c0-2.6-0.7-5.3-4-5.3c-2.3,0-4.2,1.1-5.4,2l-0.7-1.1
			c1.2-0.8,3.5-2.2,6.3-2.2c4,0,5.3,2.9,5.3,6.5V432h-1.3l-0.2-2.2h-0.1c-1.7,1.4-3.8,2.6-6,2.6C280.5,432.4,278.3,431,278.3,427.8z
			 M289.1,428.4v-5.7c-6.9,0.8-9.3,2.4-9.3,5.1c0,2.4,1.6,3.3,3.6,3.3C285.4,431.1,287.1,430.1,289.1,428.4z"/>
		<path class="st3" d="M294.3,439.3l0.4-1.3c0.3,0.1,0.9,0.3,1.4,0.3c2.1,0,3.5-1.9,4.3-4.5l0.5-1.5l-6.9-17.1h1.7l4.1,10.6
			c0.6,1.4,1.2,3.2,1.8,4.7h0.1c0.5-1.5,1.1-3.3,1.6-4.7l3.6-10.6h1.6l-6.6,18.9c-0.9,2.8-2.6,5.5-5.7,5.5
			C295.4,439.7,294.7,439.5,294.3,439.3z"/>
		<path class="st3" d="M310.5,423.6c0-5.4,3.4-8.9,7.5-8.9c2,0,3.4,0.8,5.1,2.1l-0.1-3.1v-6.9h1.5V432h-1.3l-0.2-2.2H323
			c-1.4,1.4-3.2,2.6-5.5,2.6C313.3,432.4,310.5,429.3,310.5,423.6z M323,428.3v-10c-1.8-1.6-3.2-2.2-4.9-2.2c-3.3,0-5.9,3.3-5.9,7.5
			c0,4.5,2,7.4,5.6,7.4C319.6,431,321.2,430.1,323,428.3z"/>
		<path class="st3" d="M329.6,423.6c0-5.5,3.6-8.9,7.3-8.9c4,0,6.4,2.8,6.4,7.8c0,0.4,0,0.8-0.1,1.3h-12.1c0.1,4.2,2.5,7.3,6.3,7.3
			c1.8,0,3.3-0.6,4.5-1.5l0.6,1.2c-1.3,0.8-2.8,1.7-5.3,1.7C333,432.4,329.6,429.1,329.6,423.6z M341.9,422.5c0-4.3-1.9-6.4-5-6.4
			c-2.8,0-5.4,2.4-5.8,6.4H341.9z"/>
		<path class="st3" d="M347.9,415.2h1.3l0.2,2.6h0.1c1.7-1.7,3.5-3,5.8-3c3.5,0,5.1,2.1,5.1,6.4V432h-1.5v-10.6
			c0-3.6-1.1-5.3-3.8-5.3c-2,0-3.5,1.1-5.5,3.2V432h-1.5V415.2z"/>
		<path class="st3" d="M364.9,436.4c1.6-0.8,2.7-2.3,2.7-4.3l-0.4-2.1l1.2,1.6c-0.3,0.5-0.8,0.6-1.2,0.6c-0.8,0-1.5-0.5-1.5-1.5
			c0-1,0.7-1.5,1.5-1.5c1.1,0,1.8,1,1.8,2.5c0,2.6-1.5,4.6-3.6,5.7L364.9,436.4z"/>
		<path class="st3" d="M381.5,427.4v-10.8h-2.6v-1.2l2.7-0.1l0.2-4.9h1.3v4.9h4.9v1.4h-4.9v10.9c0,2.1,0.5,3.6,2.9,3.6
			c0.6,0,1.5-0.3,2.1-0.5l0.4,1.3c-1,0.3-2,0.6-2.7,0.6C382.5,432.4,381.5,430.4,381.5,427.4z"/>
		<path class="st3" d="M392.1,406.8h1.5v7.3l0,3.7c1.8-1.7,3.5-3.1,5.8-3.1c3.5,0,5.1,2.1,5.1,6.4V432h-1.5v-10.6
			c0-3.6-1.1-5.3-3.8-5.3c-2,0-3.5,1.1-5.5,3.2V432h-1.5V406.8z"/>
		<path class="st3" d="M409.1,423.6c0-5.5,3.6-8.9,7.3-8.9c4,0,6.4,2.8,6.4,7.8c0,0.4,0,0.8-0.1,1.3h-12.1c0.1,4.2,2.5,7.3,6.3,7.3
			c1.8,0,3.3-0.6,4.5-1.5l0.6,1.2c-1.3,0.8-2.8,1.7-5.3,1.7C412.6,432.4,409.1,429.1,409.1,423.6z M421.4,422.5c0-4.3-1.9-6.4-5-6.4
			c-2.8,0-5.4,2.4-5.8,6.4H421.4z"/>
		<path class="st3" d="M434.8,427.4v-10.8h-2.6v-1.2l2.7-0.1l0.2-4.9h1.3v4.9h4.9v1.4h-4.9v10.9c0,2.1,0.5,3.6,2.9,3.6
			c0.6,0,1.5-0.3,2.1-0.5l0.4,1.3c-1,0.3-2,0.6-2.7,0.6C435.8,432.4,434.8,430.4,434.8,427.4z"/>
		<path class="st3" d="M443.9,423.6c0-5.5,3.6-8.9,7.3-8.9c4,0,6.4,2.8,6.4,7.8c0,0.4,0,0.8-0.1,1.3h-12.1c0.1,4.2,2.5,7.3,6.3,7.3
			c1.8,0,3.3-0.6,4.5-1.5l0.6,1.2c-1.3,0.8-2.8,1.7-5.3,1.7C447.4,432.4,443.9,429.1,443.9,423.6z M456.2,422.5c0-4.3-1.9-6.4-5-6.4
			c-2.8,0-5.4,2.4-5.8,6.4H456.2z"/>
		<path class="st3" d="M461,427.8c0-3.7,3.4-5.5,10.8-6.3c0-2.6-0.7-5.3-4-5.3c-2.3,0-4.2,1.1-5.4,2l-0.7-1.1
			c1.2-0.8,3.5-2.2,6.3-2.2c4,0,5.3,2.9,5.3,6.5V432h-1.3l-0.2-2.2h-0.1c-1.7,1.4-3.8,2.6-6,2.6C463.3,432.4,461,431,461,427.8z
			 M471.9,428.4v-5.7c-6.9,0.8-9.3,2.4-9.3,5.1c0,2.4,1.6,3.3,3.6,3.3C468.1,431.1,469.8,430.1,471.9,428.4z"/>
		<path class="st3" d="M479.4,415.2h1.3l0.2,2.6h0.1c1.5-1.7,3.4-3,5.3-3c2.7,0,4,1.4,4.6,3.4c1.9-2.1,3.8-3.4,5.7-3.4
			c3.3,0,5,2.1,5,6.4V432h-1.5v-10.6c0-3.6-1.2-5.3-3.8-5.3c-1.6,0-3.2,1.1-5,3.2V432h-1.5v-10.6c0-3.6-1.2-5.3-3.8-5.3
			c-1.5,0-3.2,1.1-5,3.2V432h-1.5V415.2z"/>
		<path class="st3" d="M516.4,430.3L516.4,430.3l-0.3,1.7h-1.3v-25.2h1.5v7.3l-0.1,3.3c1.7-1.4,3.7-2.6,5.8-2.6
			c4.5,0,6.7,3.4,6.7,8.6c0,5.7-3.4,9.1-7.4,9.1C519.8,432.4,518,431.6,516.4,430.3z M527.2,423.4c0-4.1-1.5-7.2-5.3-7.2
			c-1.7,0-3.5,1-5.5,2.8v10c1.8,1.6,3.7,2.2,4.9,2.2C524.8,431,527.2,427.9,527.2,423.4z"/>
		<path class="st3" d="M532.4,423.6c0-5.5,3.6-8.9,7.3-8.9c4,0,6.4,2.8,6.4,7.8c0,0.4,0,0.8-0.1,1.3H534c0.1,4.2,2.5,7.3,6.3,7.3
			c1.8,0,3.3-0.6,4.5-1.5l0.6,1.2c-1.3,0.8-2.8,1.7-5.3,1.7C535.9,432.4,532.4,429.1,532.4,423.6z M544.7,422.5c0-4.3-1.9-6.4-5-6.4
			c-2.8,0-5.4,2.4-5.8,6.4H544.7z"/>
		<path class="st3" d="M550.7,406.8h1.5v7.3l0,3.7c1.8-1.7,3.5-3.1,5.8-3.1c3.5,0,5.1,2.1,5.1,6.4V432h-1.5v-10.6
			c0-3.6-1.1-5.3-3.8-5.3c-2,0-3.5,1.1-5.5,3.2V432h-1.5V406.8z"/>
		<path class="st3" d="M568.6,409.8c0-0.9,0.6-1.4,1.4-1.4c0.8,0,1.4,0.5,1.4,1.4c0,0.8-0.6,1.4-1.4,1.4
			C569.3,411.1,568.6,410.6,568.6,409.8z M569.2,415.2h1.5V432h-1.5V415.2z"/>
		<path class="st3" d="M577.2,415.2h1.3l0.2,2.6h0.1c1.7-1.7,3.5-3,5.8-3c3.5,0,5.1,2.1,5.1,6.4V432h-1.5v-10.6
			c0-3.6-1.1-5.3-3.8-5.3c-2,0-3.5,1.1-5.5,3.2V432h-1.5V415.2z"/>
		<path class="st3" d="M594.4,423.6c0-5.4,3.4-8.9,7.5-8.9c2,0,3.4,0.8,5.1,2.1l-0.1-3.1v-6.9h1.5V432h-1.3l-0.2-2.2h-0.1
			c-1.4,1.4-3.2,2.6-5.5,2.6C597.2,432.4,594.4,429.3,594.4,423.6z M606.9,428.3v-10c-1.8-1.6-3.2-2.2-4.9-2.2
			c-3.3,0-5.9,3.3-5.9,7.5c0,4.5,2,7.4,5.6,7.4C603.4,431,605.1,430.1,606.9,428.3z"/>
		<path class="st3" d="M160.8,465.6c0-5.5,3.6-8.9,7.3-8.9c4,0,6.4,2.8,6.4,7.8c0,0.4,0,0.8-0.1,1.3h-12.1c0.1,4.2,2.5,7.3,6.3,7.3
			c1.8,0,3.3-0.6,4.5-1.5l0.6,1.2c-1.3,0.8-2.8,1.7-5.3,1.7C164.3,474.4,160.8,471.1,160.8,465.6z M173.1,464.5c0-4.3-1.9-6.4-5-6.4
			c-2.8,0-5.4,2.4-5.8,6.4H173.1z"/>
		<path class="st3" d="M176.3,457.2h1.7l3.8,10.5c0.5,1.6,1.2,3.3,1.7,4.8h0.1c0.5-1.5,1.2-3.2,1.7-4.8l3.8-10.5h1.6l-6.2,16.8h-1.8
			L176.3,457.2z"/>
		<path class="st3" d="M192.9,465.6c0-5.5,3.6-8.9,7.3-8.9c4,0,6.4,2.8,6.4,7.8c0,0.4,0,0.8-0.1,1.3h-12.1c0.1,4.2,2.5,7.3,6.3,7.3
			c1.8,0,3.3-0.6,4.5-1.5l0.6,1.2c-1.3,0.8-2.8,1.7-5.3,1.7C196.4,474.4,192.9,471.1,192.9,465.6z M205.2,464.5c0-4.3-1.9-6.4-5-6.4
			c-2.8,0-5.4,2.4-5.8,6.4H205.2z"/>
		<path class="st3" d="M211.2,457.2h1.3l0.2,3.1h0.1c1.1-2.1,2.8-3.6,4.8-3.6c0.6,0,1.1,0.1,1.7,0.4l-0.4,1.4
			c-0.6-0.2-0.9-0.3-1.5-0.3c-1.5,0-3.3,1.1-4.6,4.3V474h-1.5V457.2z"/>
		<path class="st3" d="M219.9,481.3l0.4-1.3c0.3,0.1,0.9,0.3,1.4,0.3c2.1,0,3.5-1.9,4.3-4.5l0.5-1.5l-6.9-17.1h1.7l4.1,10.6
			c0.6,1.4,1.2,3.2,1.8,4.7h0.1c0.5-1.5,1.1-3.3,1.6-4.7l3.6-10.6h1.6l-6.6,18.9c-0.9,2.8-2.6,5.5-5.7,5.5
			C221,481.7,220.4,481.5,219.9,481.3z"/>
		<path class="st3" d="M244.6,457.2h1.3l0.2,2.1h0.1c1.6-1.3,3.6-2.5,5.7-2.5c4.5,0,6.7,3.4,6.7,8.6c0,5.7-3.4,9.1-7.4,9.1
			c-1.6,0-3.3-0.8-5.1-2.1l0,3.1v6.2h-1.5V457.2z M256.9,465.4c0-4.1-1.5-7.2-5.3-7.2c-1.7,0-3.4,1-5.5,2.8v10
			c1.9,1.6,3.7,2.2,4.9,2.2C254.5,473,256.9,469.9,256.9,465.4z"/>
		<path class="st3" d="M263.6,457.2h1.3l0.2,3.1h0.1c1.1-2.1,2.8-3.6,4.8-3.6c0.6,0,1.1,0.1,1.7,0.4l-0.4,1.4
			c-0.6-0.2-0.9-0.3-1.5-0.3c-1.5,0-3.3,1.1-4.6,4.3V474h-1.5V457.2z"/>
		<path class="st3" d="M273.3,465.6c0-5.6,3.5-8.9,7.5-8.9c4,0,7.5,3.2,7.5,8.9c0,5.6-3.5,8.8-7.5,8.8
			C276.8,474.4,273.3,471.2,273.3,465.6z M286.8,465.6c0-4.4-2.5-7.5-5.9-7.5s-5.9,3.1-5.9,7.5c0,4.4,2.5,7.4,5.9,7.4
			S286.8,470.1,286.8,465.6z"/>
		<path class="st3" d="M291.4,457.3l2.3-0.1h5.4v1.4h-7.7V457.3z M293.7,453.5c0-3.3,1.5-5.1,4.2-5.1c0.8,0,1.7,0.2,2.5,0.6
			l-0.4,1.3c-0.7-0.3-1.4-0.5-2-0.5c-1.8,0-2.6,1.4-2.6,3.8V474h-1.5V453.5z"/>
		<path class="st3" d="M301.2,465.6c0-5.5,3.6-8.9,7.3-8.9c4,0,6.4,2.8,6.4,7.8c0,0.4,0,0.8-0.1,1.3h-12.1c0.1,4.2,2.5,7.3,6.3,7.3
			c1.8,0,3.3-0.6,4.5-1.5l0.6,1.2c-1.3,0.8-2.8,1.7-5.3,1.7C304.7,474.4,301.2,471.1,301.2,465.6z M313.5,464.5c0-4.3-1.9-6.4-5-6.4
			c-2.8,0-5.4,2.4-5.8,6.4H313.5z"/>
		<path class="st3" d="M317.4,472.1l0.9-1.1c1.4,1.2,3,2.1,5.3,2.1c2.6,0,4-1.5,4-3.3c0-2.1-2.2-3-4.1-3.7c-2.5-0.9-5.4-1.9-5.4-4.8
			c0-2.4,1.9-4.5,5.4-4.5c1.8,0,3.6,0.7,4.8,1.7l-0.8,1.1c-1.1-0.8-2.3-1.5-4-1.5c-2.6,0-3.8,1.5-3.8,3.1c0,1.9,2,2.6,4,3.4
			c2.6,1,5.5,1.8,5.5,5.1c0,2.5-2,4.7-5.7,4.7C321.1,474.4,318.9,473.4,317.4,472.1z"/>
		<path class="st3" d="M331.6,472.1l0.9-1.1c1.4,1.2,3,2.1,5.3,2.1c2.6,0,4-1.5,4-3.3c0-2.1-2.2-3-4.1-3.7c-2.5-0.9-5.4-1.9-5.4-4.8
			c0-2.4,1.9-4.5,5.4-4.5c1.8,0,3.6,0.7,4.8,1.7l-0.8,1.1c-1.1-0.8-2.3-1.5-4-1.5c-2.6,0-3.8,1.5-3.8,3.1c0,1.9,2,2.6,4,3.4
			c2.6,1,5.5,1.8,5.5,5.1c0,2.5-2,4.7-5.7,4.7C335.3,474.4,333.1,473.4,331.6,472.1z"/>
		<path class="st3" d="M347.3,451.8c0-0.9,0.6-1.4,1.4-1.4c0.8,0,1.4,0.5,1.4,1.4c0,0.8-0.6,1.4-1.4,1.4
			C347.9,453.1,347.3,452.6,347.3,451.8z M347.9,457.2h1.5V474h-1.5V457.2z"/>
		<path class="st3" d="M354.5,465.6c0-5.6,3.5-8.9,7.5-8.9s7.5,3.2,7.5,8.9c0,5.6-3.5,8.8-7.5,8.8S354.5,471.2,354.5,465.6z
			 M367.9,465.6c0-4.4-2.5-7.5-5.9-7.5s-5.9,3.1-5.9,7.5c0,4.4,2.5,7.4,5.9,7.4S367.9,470.1,367.9,465.6z"/>
		<path class="st3" d="M374.6,457.2h1.3l0.2,2.6h0.1c1.7-1.7,3.5-3,5.8-3c3.5,0,5.1,2.1,5.1,6.4V474h-1.5v-10.6
			c0-3.6-1.1-5.3-3.8-5.3c-2,0-3.5,1.1-5.5,3.2V474h-1.5V457.2z"/>
		<path class="st3" d="M392,469.8c0-3.7,3.4-5.5,10.8-6.3c0-2.6-0.7-5.3-4-5.3c-2.3,0-4.2,1.1-5.4,2l-0.7-1.1
			c1.2-0.8,3.5-2.2,6.3-2.2c4,0,5.3,2.9,5.3,6.5V474h-1.3l-0.2-2.2h-0.1c-1.7,1.4-3.8,2.6-6,2.6C394.2,474.4,392,473,392,469.8z
			 M402.9,470.4v-5.7c-6.9,0.8-9.3,2.4-9.3,5.1c0,2.4,1.6,3.3,3.6,3.3C399.1,473.1,400.8,472.1,402.9,470.4z"/>
		<path class="st3" d="M410.4,471.7v-22.9h1.5V472c0,0.7,0.3,1.1,0.7,1.1c0.1,0,0.3,0,0.6-0.1l0.3,1.3c-0.3,0.1-0.6,0.2-1.1,0.2
			C411.1,474.4,410.4,473.6,410.4,471.7z"/>
		<path class="st3" d="M427.2,472.3L427.2,472.3L427,474h-1.3v-25.2h1.5v7.3l-0.1,3.3c1.7-1.4,3.7-2.6,5.8-2.6
			c4.5,0,6.7,3.4,6.7,8.6c0,5.7-3.4,9.1-7.4,9.1C430.7,474.4,428.8,473.6,427.2,472.3z M438.1,465.4c0-4.1-1.5-7.2-5.3-7.2
			c-1.7,0-3.5,1-5.5,2.8v10c1.8,1.6,3.7,2.2,4.9,2.2C435.6,473,438.1,469.9,438.1,465.4z"/>
		<path class="st3" d="M444.4,468v-10.8h1.5v10.6c0,3.6,1.1,5.3,3.8,5.3c2,0,3.5-1,5.4-3.4v-12.4h1.5V474h-1.3l-0.2-2.8h-0.1
			c-1.7,1.9-3.4,3.2-5.7,3.2C446,474.4,444.4,472.3,444.4,468z"/>
		<path class="st3" d="M462.6,451.8c0-0.9,0.6-1.4,1.4-1.4c0.8,0,1.4,0.5,1.4,1.4c0,0.8-0.6,1.4-1.4,1.4
			C463.2,453.1,462.6,452.6,462.6,451.8z M463.2,457.2h1.5V474h-1.5V457.2z"/>
		<path class="st3" d="M471.2,471.7v-22.9h1.5V472c0,0.7,0.3,1.1,0.7,1.1c0.1,0,0.3,0,0.6-0.1l0.3,1.3c-0.3,0.1-0.6,0.2-1.1,0.2
			C471.9,474.4,471.2,473.6,471.2,471.7z"/>
		<path class="st3" d="M478.1,465.6c0-5.4,3.4-8.9,7.5-8.9c2,0,3.4,0.8,5.1,2.1l-0.1-3.1v-6.9h1.5V474h-1.3l-0.2-2.2h-0.1
			c-1.4,1.4-3.2,2.6-5.5,2.6C480.8,474.4,478.1,471.3,478.1,465.6z M490.5,470.3v-10c-1.8-1.6-3.2-2.2-4.9-2.2
			c-3.3,0-5.9,3.3-5.9,7.5c0,4.5,2,7.4,5.6,7.4C487.1,473,488.8,472.1,490.5,470.3z"/>
		<path class="st3" d="M497.6,472.9c0-1,0.7-1.6,1.5-1.6s1.5,0.6,1.5,1.6c0,1-0.7,1.6-1.5,1.6S497.6,473.8,497.6,472.9z"/>
		<path class="st3" d="M513.4,450.9h1.6V461h12.3v-10.1h1.6V474h-1.6v-11.6H515V474h-1.6V450.9z"/>
		<path class="st3" d="M534.9,451.8c0-0.9,0.6-1.4,1.4-1.4c0.8,0,1.4,0.5,1.4,1.4c0,0.8-0.6,1.4-1.4,1.4
			C535.6,453.1,534.9,452.6,534.9,451.8z M535.5,457.2h1.5V474h-1.5V457.2z"/>
		<path class="st3" d="M543.6,457.2h1.3l0.2,3.1h0.1c1.1-2.1,2.8-3.6,4.8-3.6c0.6,0,1.1,0.1,1.7,0.4l-0.4,1.4
			c-0.6-0.2-0.9-0.3-1.5-0.3c-1.5,0-3.3,1.1-4.6,4.3V474h-1.5V457.2z"/>
		<path class="st3" d="M553.2,465.6c0-5.5,3.6-8.9,7.3-8.9c4,0,6.4,2.8,6.4,7.8c0,0.4,0,0.8-0.1,1.3h-12.1c0.1,4.2,2.5,7.3,6.3,7.3
			c1.8,0,3.3-0.6,4.5-1.5l0.6,1.2c-1.3,0.8-2.8,1.7-5.3,1.7C556.7,474.4,553.2,471.1,553.2,465.6z M565.5,464.5c0-4.3-1.9-6.4-5-6.4
			c-2.8,0-5.4,2.4-5.8,6.4H565.5z"/>
		<path class="st3" d="M578.3,468v-10.8h1.5v10.6c0,3.6,1.1,5.3,3.8,5.3c2,0,3.5-1,5.4-3.4v-12.4h1.5V474h-1.3l-0.2-2.8h-0.1
			c-1.7,1.9-3.4,3.2-5.7,3.2C579.9,474.4,578.3,472.3,578.3,468z"/>
		<path class="st3" d="M595,472.1l0.9-1.1c1.4,1.2,3,2.1,5.3,2.1c2.6,0,4-1.5,4-3.3c0-2.1-2.2-3-4.1-3.7c-2.5-0.9-5.4-1.9-5.4-4.8
			c0-2.4,1.9-4.5,5.4-4.5c1.8,0,3.6,0.7,4.8,1.7l-0.8,1.1c-1.1-0.8-2.3-1.5-4-1.5c-2.6,0-3.8,1.5-3.8,3.1c0,1.9,2,2.6,4,3.4
			c2.6,1,5.5,1.8,5.5,5.1c0,2.5-2,4.7-5.7,4.7C598.7,474.4,596.5,473.4,595,472.1z"/>
		<path class="st3" d="M618.3,457.2h1.3l0.2,2.6h0.1c1.7-1.7,3.5-3,5.8-3c3.5,0,5.1,2.1,5.1,6.4V474h-1.5v-10.6
			c0-3.6-1.1-5.3-3.8-5.3c-2,0-3.5,1.1-5.5,3.2V474h-1.5V457.2z"/>
		<path class="st3" d="M635.5,465.6c0-5.6,3.5-8.9,7.5-8.9s7.5,3.2,7.5,8.9c0,5.6-3.5,8.8-7.5,8.8S635.5,471.2,635.5,465.6z
			 M648.9,465.6c0-4.4-2.5-7.5-5.9-7.5s-5.9,3.1-5.9,7.5c0,4.4,2.5,7.4,5.9,7.4S648.9,470.1,648.9,465.6z"/>
		<path class="st3" d="M653.2,457.2h1.7l3,10.9c0.4,1.6,0.8,3,1.1,4.5h0.1c0.4-1.5,0.8-2.9,1.2-4.5l3.1-10.9h1.8l3.1,10.9
			c0.4,1.6,0.8,3,1.2,4.5h0.1c0.4-1.5,0.8-2.9,1.2-4.5l3-10.9h1.6l-4.8,16.8h-2l-3-10.4c-0.5-1.6-0.8-3.2-1.3-4.8h-0.1
			c-0.4,1.6-0.8,3.3-1.3,4.9L660,474h-1.9L653.2,457.2z"/>
		<path class="st3" d="M679.4,472.9c0-1,0.7-1.6,1.5-1.6s1.5,0.6,1.5,1.6c0,1-0.7,1.6-1.5,1.6S679.4,473.8,679.4,472.9z M680.1,453
			l0-2.5h1.6l0,2.5l-0.2,14.7h-1.1L680.1,453z"/>
	</g>
</g>
<polygon class="st4" points="1921,225 1921,174.1 1921,33.5 1921,1 1060.6,1 1044.6,225 1130.6,225 "/>
<polygon class="st4" points="1130.6,225 1044.6,225 983.5,1081 1066.1,1081 1120.5,362.8 "/>
</svg>
